Simulation
nRows=45
nColumns=15
endheader
time  TH_x TH_y TH_z SC_y  SC_z  SC_x  AC_y  AC_z  AC_x  GH_y  GH_z  GH_yy  EL_x  PS_y
0.0  0.000000  0.000000  0.000000  -35.81260246453075  0.5676920811400356  -16.023700676836704  64.58453943213843  25.296976408692018  42.85055113112229  29.247700663314923  33.040772113004856  -11.9225657942417  25.121584588387062  0.000000
0.04  0.000000  0.000000  0.000000  -34.63529429463344  -5.754958512622501  -2.94180647307983  62.576634597961714  27.957552202003907  43.77565447595478  32.26421667478553  29.79103118280595  -16.795358504960003  24.484608498902688  0.000000
0.08  0.000000  0.000000  0.000000  -39.20168611156185  6.533073234778781  -7.446395092858855  66.37977070662676  15.875920048602245  42.716476726185675  44.51923218558151  43.64359032873112  -25.02551923108424  27.465248735258378  0.000000
0.12  0.000000  0.000000  0.000000  -25.71207949165015  34.44574072787424  -6.705262844241495  39.115397600305116  4.570018837700252  62.44112637377871  57.236664473305524  19.74432202735146  -35.04071595236729  30.70433681653084  0.000000
0.16  0.000000  0.000000  0.000000  -16.7841889270887  45.11742068667339  4.356102866909277  30.652106367188555  1.1093028011724935  70.52263830029804  54.66353190578669  4.9377387586327135  -42.103159816269965  23.92936057800033  0.000000
0.2  0.000000  0.000000  0.000000  -24.445813545565812  35.16989092988113  7.74185150349903  47.50585330733905  -1.1977670376749194  62.100904653782585  48.939031681641424  22.98684756611151  -44.864930385655875  20.311768277570387  0.000000
0.24  0.000000  0.000000  0.000000  -22.664939704595085  42.62818655436064  11.16924665605075  33.27743596593199  0.7243705321465743  70.28216780968033  60.68908160701434  5.942112120297009  -45.47712594601354  23.317396408708436  0.000000
0.28  0.000000  0.000000  0.000000  -29.980646404752335  37.26383562814246  3.948412781672774  40.80015925728974  0.7318025263266431  59.707733050228896  66.05791650984683  24.330664381041313  -44.523750901965144  26.97574684545752  0.000000
0.32  0.000000  0.000000  0.000000  -40.211404056994  24.054864554236403  -4.418869047714548  57.20885490331087  -3.4359362687694346  38.88241739652585  68.19057866553686  57.51794827728063  -44.43397003578476  33.082768427064096  0.000000
0.36  0.000000  0.000000  0.000000  -28.36772234987817  37.565091855227045  2.2168181400544666  38.788418624690486  0.81675826292359  59.72175057312207  73.93256825236725  23.884959833124366  -50.05241564794226  28.775682804936118  0.000000
0.4  0.000000  0.000000  0.000000  -28.56122030794228  46.69245696663478  1.5419025327173672  39.87610776914131  16.788604909634014  86.20153492765499  69.71926464082341  2.281934820647303  -62.080268573303904  20.13564963447109  0.000000
0.44  0.000000  0.000000  0.000000  -37.49291322996354  34.020710616136135  9.23011634841904  52.884775881233296  16.051402602737465  79.66766150848561  90.56109743978475  4.754612634264567  -73.37837955273484  25.527053627820894  0.000000
0.48  0.000000  0.000000  0.000000  -28.933912133386496  30.39697881766166  37.767014570306884  46.29862989435882  -13.738987877644888  57.85289988283467  125.36883737493307  -6.395200149604721  -87.54363446191081  29.852733290507278  0.000000
0.52  0.000000  0.000000  0.000000  -26.2309706901046  31.81518901851599  46.42470122626364  42.59590153326404  -22.595915352764145  48.016640548394925  136.4015257337422  -7.302709700108964  -99.81697913447972  26.726118845480844  0.000000
0.56  0.000000  0.000000  0.000000  -30.149384604954896  30.225888662749245  34.161985242906866  43.09829855379887  -11.652816966402208  51.59413030325983  137.38693686453112  -3.120364262141404  -100.33135189864429  26.028258945380685  0.000000
0.6  0.000000  0.000000  0.000000  -30.156624352099897  31.84057359054041  31.498616052487314  41.66328008619636  -10.780677479432557  53.7763016226554  136.21134372453196  -4.942562782089842  -100.04973573900472  25.460756681602867  0.000000
0.64  0.000000  0.000000  0.000000  -30.861156176014287  30.243805898430118  34.76961394165467  44.86657738171915  -11.160641601364523  53.54210023155839  133.48035028904968  -5.100820676582125  -97.34252256938233  25.693743231258278  0.000000
0.68  0.000000  0.000000  0.000000  -29.991833021029596  30.1583256072807  37.97652152177105  45.857587891679174  -13.36718339805112  55.63209948512952  130.05208134425354  -4.650948634822992  -89.8443098556443  26.17242158702066  0.000000
0.72  0.000000  0.000000  0.000000  -32.25386249777563  30.32492036795685  37.452541179751364  48.666034561691006  -10.450618814045075  59.310944670619996  120.65017147812827  0.1400560582233094  -79.14032436537215  25.606030590061586  0.000000
0.76  0.000000  0.000000  0.000000  -33.08052643886671  33.790594430938725  28.55862830235962  48.16242703471339  -3.9625657773566765  64.80393325250148  103.38838972445033  8.329946586781263  -62.66265792010397  21.748778045018117  0.000000
0.8  0.000000  0.000000  0.000000  -30.16700618817036  39.01946609178933  17.3783527378768  43.35622203309182  -1.1890939065648034  68.53613959617469  83.75504341834639  17.036154616991446  -45.335236388659375  18.184396794794772  0.000000
0.84  0.000000  0.000000  0.000000  -23.53659241882545  37.950508820129045  3.7064224670683523  36.054220159995644  0.7026056200582456  62.367872116913304  71.68925114718726  36.993743463232256  -32.770014055924186  20.50837294073782  0.000000
0.88  0.000000  0.000000  0.000000  -10.527592644499054  39.709374475152025  -5.253592172121943  24.86594110339341  4.519651560634548  50.65711027696393  62.38933282654032  55.771843068156294  -29.040050915762137  23.568097256918293  0.000000
0.92  0.000000  0.000000  0.000000  -3.949693310493278  40.08917375716527  -0.9768586856419256  17.671763148986432  10.484394922340712  51.20236560151078  56.368732578489656  49.62677571258023  -27.4891556794708  22.8340221314682  0.000000
0.96  0.000000  0.000000  0.000000  -6.497293891806387  32.360368230883196  7.2869516785506105  21.00105247454965  16.211535721918974  58.7454209983218  51.79930367498072  35.79647527104085  -20.590923001046033  21.755475300019047  0.000000
1.0  0.000000  0.000000  0.000000  -8.16512758239343  27.178585889677496  13.602608705261169  26.310859916094103  18.97370041552415  60.13284636846365  43.420286819190345  28.114265150502074  -13.08671495995923  21.23061868968521  0.000000
1.04  0.000000  0.000000  0.000000  -8.089602270717116  25.589032746276402  17.061456740457796  27.676134982443173  18.39437269277331  59.682583155491734  38.25897518377362  23.400181109069322  -6.371485365612622  20.15175442516241  0.000000
1.08  0.000000  0.000000  0.000000  -7.83340765006398  22.92621221984028  18.410322757531365  29.17463259931861  19.01386849888846  57.52679915050025  35.921676419088435  22.65584366976266  -2.685231517957319  20.278992554149273  0.000000
1.12  0.000000  0.000000  0.000000  -7.576289736175365  23.131804994281794  18.887388484107042  29.12168898084975  18.617413164556748  56.692075128108414  35.939471431623566  22.742545156630776  -2.6107020808458152  19.89655581608316  0.000000
1.16  0.000000  0.000000  0.000000  -7.540382303674323  25.70582584651398  17.169482298442173  27.55909954764978  17.617131859499676  58.09384320442407  38.465394695423804  24.113694128812572  -5.512957574921304  18.997864615013288  0.000000
1.2  0.000000  0.000000  0.000000  -7.171515554725298  26.984452065973958  13.105538348505055  25.70229033990184  18.287939432946423  58.35058442597323  43.64640212351435  28.750757561583832  -11.317903330199723  19.333861692278653  0.000000
1.24  0.000000  0.000000  0.000000  -5.336602629716777  31.94736349298643  5.245429825875864  20.75561635718566  16.131422443054973  57.98008059669243  51.158686957486864  36.12261711083222  -18.790320389998136  19.440796951944197  0.000000
1.28  0.000000  0.000000  0.000000  -3.2934896210691504  38.56129697711002  -3.341396431249578  17.39276428628739  11.143372396210612  52.46246842331892  56.72312325613588  48.24050356938423  -25.801266072392544  20.210963011724637  0.000000
1.32  0.000000  0.000000  0.000000  -9.051062935047522  39.976540448215346  -3.4339508877596048  24.917069979890645  1.9672700401299974  48.46422823275065  62.6990618690893  54.48084155951104  -29.552291192490273  20.582786080520165  0.000000
1.36  0.000000  0.000000  0.000000  -20.92320010606751  38.786332144593594  4.57643788213369  35.03536221461384  -0.7846597802649126  58.762978291359445  72.68927195181222  37.21726034919342  -36.68734541949177  17.605472770146598  0.000000
1.4000000000000001  0.000000  0.000000  0.000000  -28.463399001319004  38.39263306567992  12.03501028706893  41.487563511565455  2.153054708462918  68.5138876182144  83.95176977632221  18.543358242815877  -50.135084099204434  15.83937692010533  0.000000
1.44  0.000000  0.000000  0.000000  -31.846838775664324  35.36561574159731  20.418180889067987  47.09336048593792  0.47306649972148335  67.89367040128744  99.25739903724659  10.43466524753266  -65.65868619934832  17.998005460398076  0.000000
1.48  0.000000  0.000000  0.000000  -31.52057576793657  31.468215824332407  30.98745382367818  47.65163192861535  -5.7533188327936475  61.992708752034886  114.57295052424848  3.125257446646299  -80.75944199829527  21.55302034467835  0.000000
1.52  0.000000  0.000000  0.000000  -31.66814615252151  30.955253695156795  36.44205241317285  47.353609622446314  -11.11531678244205  57.56784800611081  123.8208915724295  -0.27848517393693595  -94.7820289752298  22.972655627026032  0.000000
1.56  0.000000  0.000000  0.000000  -30.469678066474472  30.46783528719362  35.7413400367914  44.905482642051744  -11.644324008769017  54.86881436382916  131.55013544884474  -1.5785509236915545  -103.8333415847982  23.09287489806733  0.000000
1.6  0.000000  0.000000  0.000000  -30.951395519829223  30.385189830447736  37.09111824306277  44.9655867845627  -12.559436027121105  53.428956905601005  132.5691748848974  -2.259123099505717  -109.7673620415543  24.571805306503762  0.000000
1.6400000000000001  0.000000  0.000000  0.000000  -32.48443301953038  31.061300568412534  38.97487222177375  46.06087114089224  -12.705670317455619  54.82563593941563  131.20239619503906  -2.1165000642349807  -112.02158382715268  25.554681524153114  0.000000
1.68  0.000000  0.000000  0.000000  -31.83445591363614  29.081544464248033  40.26128861945716  46.57512554567642  -13.453017536100125  55.60921268395861  130.4279194666808  -3.28491852605442  -109.57891480116378  25.967520998067357  0.000000
1.72  0.000000  0.000000  0.000000  -28.611506206451583  31.691594838444768  46.518817670215725  48.55755232184398  -18.50390641539595  57.12740490551001  119.14210186816888  -11.331177367107696  -107.95801885712763  20.364483722382374  0.000000
1.76  0.000000  0.000000  0.000000  -23.130117929356558  40.65117778723392  33.8024848605125  39.470357181798654  -16.1321985897745  52.29134077151716  106.17214116896359  -8.429007385365791  -101.62919950648725  23.093139854482082  0.000000
